<?xml version="1.0" encoding="UTF-8" standalone="no"?>
<!DOCTYPE svg PUBLIC "-//W3C//DTD SVG 1.1//EN" "http://www.w3.org/Graphics/SVG/1.1/DTD/svg11.dtd">
<svg xmlns="http://www.w3.org/2000/svg" version="1.1" viewBox="0.00 0.00 164.00 164.00">
<path fill="#010101" d="
  M 71.38 140.13
  Q 77.71 140.25 84.26 136.25
  A 1.41 1.40 50.3 0 1 85.93 136.41
  Q 95.73 145.33 109.34 145.31
  A 0.22 0.22 0.0 0 1 109.43 145.74
  C 81.32 157.94 49.31 149.22 30.16 125.75
  C 8.52 99.21 10.08 62.01 33.06 36.87
  C 56.52 11.21 95.90 7.43 123.70 28.06
  C 156.87 52.67 161.24 100.23 132.65 130.32
  Q 121.99 141.53 106.97 140.75
  Q 94.53 140.10 85.88 130.30
  A 0.54 0.54 0.0 0 0 85.01 130.37
  Q 80.50 137.54 71.32 139.56
  A 0.29 0.29 0.0 0 0 71.38 140.13
  Z
  M 36.43 102.64
  Q 35.72 83.68 46.91 70.34
  C 55.34 60.29 67.86 54.05 80.74 53.95
  Q 96.31 53.82 99.14 53.86
  A 0.64 0.64 0.0 0 1 99.78 54.52
  C 99.58 62.52 95.39 69.49 87.00 71.00
  C 84.00 71.54 79.12 71.29 75.34 72.28
  Q 61.75 75.83 56.27 89.56
  C 53.70 96.02 53.82 102.73 55.15 109.54
  C 56.41 116.04 60.89 123.42 68.25 122.57
  C 78.53 121.37 76.47 109.71 79.00 102.07
  C 82.85 90.46 91.82 87.32 103.34 81.62
  Q 113.56 76.57 117.31 66.01
  A 0.15 0.15 0.0 0 1 117.60 66.07
  C 117.51 77.96 111.62 82.92 102.68 89.17
  C 93.86 95.33 89.73 109.50 98.34 117.76
  Q 103.69 122.89 110.98 120.91
  C 117.18 119.24 121.96 113.27 124.80 107.77
  Q 130.41 96.86 130.88 84.22
  Q 131.67 63.06 117.68 47.79
  C 103.80 32.63 81.87 28.49 63.18 36.66
  C 46.88 43.78 35.73 58.99 33.35 76.95
  Q 31.67 89.68 35.95 102.72
  A 0.25 0.24 35.2 0 0 36.43 102.64
  Z"
/>
<path fill="#010101" d="
  M 97.82 108.40
  A 0.28 0.28 0.0 0 1 97.28 108.26
  C 98.00 102.06 98.52 97.40 103.92 93.39
  Q 110.31 88.65 112.80 86.33
  Q 122.22 77.53 121.49 64.73
  Q 121.30 61.48 121.31 61.46
  A 0.30 0.30 0.0 0 1 121.84 61.44
  C 127.09 70.66 127.13 81.00 120.26 88.58
  C 116.82 92.38 109.28 96.40 106.02 98.73
  Q 99.96 103.07 97.82 108.40
  Z"
/>
<path fill="#010101" d="
  M 126.03 86.68
  A 0.36 0.36 0.0 0 1 126.43 87.07
  Q 125.45 100.94 117.10 111.50
  Q 114.47 114.83 111.62 116.07
  C 107.50 117.88 98.92 117.59 100.93 110.47
  Q 102.35 105.43 107.00 102.51
  C 114.49 97.81 121.34 94.67 125.52 87.04
  Q 125.70 86.72 126.03 86.68
  Z"
/>
</svg>
